<svg width="100" height="100" viewBox="0 0 100 100" fill="none" xmlns="http://www.w3.org/2000/svg">
<rect width="100" height="100" rx="50" fill="#EFFBFA"/>
<path d="M40.625 33.125C40.625 30.6386 41.6127 28.254 43.3709 26.4959C45.129 24.7377 47.5136 23.75 50 23.75C52.4864 23.75 54.871 24.7377 56.6291 26.4959C58.3873 28.254 59.375 30.6386 59.375 33.125C59.375 35.6114 58.3873 37.996 56.6291 39.7541C54.871 41.5123 52.4864 42.5 50 42.5C47.5136 42.5 45.129 41.5123 43.3709 39.7541C41.6127 37.996 40.625 35.6114 40.625 33.125ZM44.375 46.25C42.8832 46.25 41.4524 46.8426 40.3975 47.8975C39.3426 48.9524 38.75 50.3832 38.75 51.875V61.25C38.75 64.2337 39.9353 67.0952 42.0451 69.205C44.1548 71.3147 47.0163 72.5 50 72.5C52.9837 72.5 55.8452 71.3147 57.955 69.205C60.0647 67.0952 61.25 64.2337 61.25 61.25V51.875C61.25 50.3832 60.6574 48.9524 59.6025 47.8975C58.5476 46.8426 57.1169 46.25 55.625 46.25H44.375ZM35.21 49.8875C35.0694 50.5406 34.999 51.2069 35 51.875V61.25C34.9996 63.257 35.402 65.2437 36.1834 67.0924C36.9647 68.941 38.1091 70.6141 39.5488 72.0125L39.1738 72.1175C36.2925 72.8884 33.2231 72.4836 30.6403 70.9921C28.0574 69.5006 26.1726 67.0445 25.4 64.1638L23.9413 58.7262C23.7502 58.0127 23.7015 57.2685 23.798 56.5361C23.8946 55.8037 24.1344 55.0975 24.5039 54.4578C24.8733 53.8181 25.3652 53.2575 25.9513 52.8079C26.5375 52.3583 27.2064 52.0286 27.92 51.8375L35.21 49.8875ZM60.4475 72.0125C61.8878 70.6144 63.0329 68.9415 63.8149 67.0928C64.5969 65.2441 64.9999 63.2573 65 61.25V51.875C64.9975 51.19 64.9275 50.5275 64.79 49.8875L72.0763 51.8375C72.7902 52.0285 73.4596 52.3584 74.046 52.8082C74.6325 53.2581 75.1245 53.8191 75.494 54.4592C75.8635 55.0993 76.1032 55.806 76.1995 56.5388C76.2958 57.2716 76.2467 58.0162 76.055 58.73L74.6 64.1638C74.2092 65.6221 73.5289 66.9869 72.5996 68.1767C71.6702 69.3666 70.5109 70.3572 69.1907 71.0896C67.8704 71.822 66.4162 72.2812 64.9148 72.4397C63.4134 72.5983 61.8916 72.453 60.4475 72.0125ZM23.75 38.75C23.75 36.7609 24.5402 34.8532 25.9467 33.4467C27.3532 32.0402 29.2609 31.25 31.25 31.25C33.2391 31.25 35.1468 32.0402 36.5533 33.4467C37.9598 34.8532 38.75 36.7609 38.75 38.75C38.75 40.7391 37.9598 42.6468 36.5533 44.0533C35.1468 45.4598 33.2391 46.25 31.25 46.25C29.2609 46.25 27.3532 45.4598 25.9467 44.0533C24.5402 42.6468 23.75 40.7391 23.75 38.75ZM61.25 38.75C61.25 36.7609 62.0402 34.8532 63.4467 33.4467C64.8532 32.0402 66.7609 31.25 68.75 31.25C70.7391 31.25 72.6468 32.0402 74.0533 33.4467C75.4598 34.8532 76.25 36.7609 76.25 38.75C76.25 40.7391 75.4598 42.6468 74.0533 44.0533C72.6468 45.4598 70.7391 46.25 68.75 46.25C66.7609 46.25 64.8532 45.4598 63.4467 44.0533C62.0402 42.6468 61.25 40.7391 61.25 38.75Z" fill="#48D1CC"/>
</svg>
