<svg width="101" height="100" viewBox="0 0 101 100" fill="none" xmlns="http://www.w3.org/2000/svg">
<rect x="0.5" width="100" height="100" rx="50" fill="#EFFBFA"/>
<path fill-rule="evenodd" clip-rule="evenodd" d="M51 25V41.25C51 42.2446 51.3951 43.1984 52.0983 43.9017C52.8016 44.6049 53.7554 45 54.75 45H71V70C71 71.3261 70.4732 72.5979 69.5355 73.5355C68.5979 74.4732 67.3261 75 66 75H36C34.6739 75 33.4021 74.4732 32.4645 73.5355C31.5268 72.5979 31 71.3261 31 70V30C31 28.6739 31.5268 27.4021 32.4645 26.4645C33.4021 25.5268 34.6739 25 36 25H51ZM58.5 57.5H43.5C42.837 57.5 42.2011 57.7634 41.7322 58.2322C41.2634 58.7011 41 59.337 41 60C41 60.663 41.2634 61.2989 41.7322 61.7678C42.2011 62.2366 42.837 62.5 43.5 62.5H58.5C59.163 62.5 59.7989 62.2366 60.2678 61.7678C60.7366 61.2989 61 60.663 61 60C61 59.337 60.7366 58.7011 60.2678 58.2322C59.7989 57.7634 59.163 57.5 58.5 57.5ZM46 47.5H43.5C42.837 47.5 42.2011 47.7634 41.7322 48.2322C41.2634 48.7011 41 49.337 41 50C41 50.663 41.2634 51.2989 41.7322 51.7678C42.2011 52.2366 42.837 52.5 43.5 52.5H46C46.663 52.5 47.2989 52.2366 47.7678 51.7678C48.2366 51.2989 48.5 50.663 48.5 50C48.5 49.337 48.2366 48.7011 47.7678 48.2322C47.2989 47.7634 46.663 47.5 46 47.5ZM56 25.1075C56.9472 25.3084 57.8157 25.78 58.5 26.465L69.535 37.5C70.22 38.1843 70.6916 39.0528 70.8925 40H56V25.1075Z" fill="#48D1CC"/>
</svg>
