<svg width="100" height="100" viewBox="0 0 100 100" fill="none" xmlns="http://www.w3.org/2000/svg">
<rect width="100" height="100" rx="50" fill="#EFFBFA"/>
<path d="M59.45 59.6001C59.45 59.6001 66.6 52.5001 69.025 50.0001C76.7 42.5001 72.875 27.0501 72.875 27.0501C72.875 27.0501 57.5 23.2251 50 30.9001C44.15 36.6001 40.35 40.5501 40.35 40.5501C40.35 40.5501 30.75 38.5501 25 44.3001L55.625 75.0001C61.375 69.1751 59.45 59.6001 59.45 59.6001ZM55.7 37.1001C56.1644 36.6352 56.7158 36.2664 57.3228 36.0148C57.9298 35.7631 58.5804 35.6336 59.2375 35.6336C59.8946 35.6336 60.5452 35.7631 61.1522 36.0148C61.7592 36.2664 62.3106 36.6352 62.775 37.1001C63.4737 37.7995 63.9494 38.6905 64.1418 39.6602C64.3343 40.63 64.235 41.635 63.8564 42.5483C63.4778 43.4616 62.8369 44.2422 62.0148 44.7914C61.1926 45.3405 60.2262 45.6336 59.2375 45.6336C58.2488 45.6336 57.2824 45.3405 56.4602 44.7914C55.6381 44.2422 54.9972 43.4616 54.6186 42.5483C54.24 41.635 54.1407 40.63 54.3332 39.6602C54.5256 38.6905 55.0013 37.7995 55.7 37.1001ZM27.5 72.5001C32.1281 72.3702 36.559 70.5978 40 67.5001L32.5 60.0001C27.5 62.5001 27.5 72.5001 27.5 72.5001Z" fill="#48D1CC"/>
</svg>
