<svg width="101" height="100" viewBox="0 0 101 100" fill="none" xmlns="http://www.w3.org/2000/svg">
<rect x="0.5" width="100" height="100" rx="50" fill="#EFFBFA"/>
<path fill-rule="evenodd" clip-rule="evenodd" d="M48.245 25.4876C49.3766 25.0634 50.6234 25.0634 51.755 25.4876L69.255 32.0501C70.2083 32.4074 71.0297 33.0472 71.6096 33.8839C72.1895 34.7207 72.5001 35.7145 72.5 36.7326V50.1401C72.5001 54.3186 71.3366 58.4147 69.1398 61.9692C66.9431 65.5237 63.7999 68.3963 60.0625 70.2651L51.6775 74.4576C51.1567 74.7181 50.5823 74.8537 50 74.8537C49.4177 74.8537 48.8433 74.7181 48.3225 74.4576L39.9375 70.2651C36.2001 68.3963 33.0569 65.5237 30.8602 61.9692C28.6634 58.4147 27.4999 54.3186 27.5 50.1401V36.7326C27.4999 35.7145 27.8105 34.7207 28.3904 33.8839C28.9703 33.0472 29.7917 32.4074 30.745 32.0501L48.245 25.4876ZM50 30.1701L32.5 36.7326V50.1401C32.5006 53.3897 33.406 56.575 35.1148 59.3392C36.8236 62.1033 39.2683 64.337 42.175 65.7901L50 69.7076V30.1701Z" fill="#48D1CC"/>
</svg>
