<svg width="101" height="100" viewBox="0 0 101 100" fill="none" xmlns="http://www.w3.org/2000/svg">
<rect x="0.5" width="100" height="100" rx="50" fill="#EFFBFA"/>
<path d="M47.0721 58.1472L47.0593 58.1172C46.8006 58.056 46.5434 57.9888 46.2878 57.9157L46.2686 57.9093C43.8242 57.2066 41.5668 55.9689 39.66 54.2857C37.563 52.4358 35.9503 50.101 34.9626 47.4849C33.975 44.8688 33.6423 42.0507 33.9936 39.2765C34.3449 36.5023 35.3695 33.8562 36.9781 31.5688C38.5866 29.2814 40.7304 27.4223 43.2223 26.1535C45.7142 24.8847 48.4787 24.2447 51.2747 24.2894C54.0707 24.3341 56.8134 25.0622 59.2635 26.41C61.7135 27.7578 63.7967 29.6846 65.3313 32.0222C66.866 34.3599 67.8054 37.0374 68.0678 39.8214C68.1514 40.7064 67.425 41.4286 66.5357 41.4286C65.6486 41.4286 64.9393 40.7064 64.8364 39.8236C64.5531 37.3878 63.6318 35.0699 62.1655 33.1044C60.6993 31.1388 58.7401 29.5951 56.486 28.6295C54.2319 27.6638 51.7629 27.3104 49.3284 27.6049C46.8939 27.8993 44.5803 28.8313 42.6215 30.3066C40.6627 31.7819 39.1281 33.7482 38.1728 36.0067C37.2176 38.2652 36.8755 40.7359 37.1812 43.169C37.4869 45.6021 38.4295 47.9113 39.9138 49.8633C41.3981 51.8153 43.3714 53.3409 45.6343 54.2857L45.72 54.3222C46.1486 54.4979 46.5886 54.6529 47.04 54.7872C47.4193 53.8707 48.1047 53.1141 48.9794 52.6465C49.8541 52.1789 50.8639 52.0291 51.8367 52.2227C52.8095 52.4164 53.685 52.9414 54.3139 53.7084C54.9429 54.4754 55.2863 55.4367 55.2857 56.4286C55.2866 57.4135 54.9483 58.3687 54.3276 59.1335C53.7069 59.8983 52.8418 60.4259 51.8777 60.6276C50.9136 60.8293 49.9095 60.6928 49.0343 60.241C48.159 59.7893 47.4661 59.0499 47.0721 58.1472ZM44.9593 60.8729C41.1526 59.689 37.7773 57.4134 35.2521 54.3286C33.6872 54.5119 32.2441 55.2635 31.1969 56.4407C30.1497 57.6179 29.5712 59.1387 29.5714 60.7143V62.2464C29.5714 70.2136 38.5928 75.7143 51 75.7143C63.4071 75.7143 72.4286 69.9114 72.4286 62.2464V60.7143C72.4286 59.0093 71.7513 57.3742 70.5457 56.1686C69.3401 54.963 67.7049 54.2857 66 54.2857H58.1893C58.6947 55.9787 58.5863 57.7957 57.8831 59.4165C57.1799 61.0373 55.9271 62.3578 54.3456 63.1453C52.764 63.9328 50.9552 64.1366 49.238 63.7209C47.5208 63.3051 46.0055 62.2965 44.9593 60.8729ZM61.7143 41.4286C61.7143 38.1886 60.2786 35.285 58.005 33.32C56.8642 32.3359 55.5288 31.6035 54.0858 31.1705C52.6427 30.7375 51.1247 30.6137 49.6306 30.8072C48.1365 31.0007 46.7 31.5071 45.4149 32.2933C44.1297 33.0796 43.0249 34.128 42.1724 35.3702C41.3199 36.6124 40.739 38.0204 40.4675 39.5023C40.1961 40.9842 40.2402 42.5067 40.597 43.9704C40.9539 45.4341 41.6154 46.8061 42.5383 47.9968C43.4613 49.1875 44.6251 50.1702 45.9536 50.8807C47.3342 49.6248 49.1335 48.9287 51 48.9286C52.8672 48.9282 54.6674 49.6243 56.0486 50.8807C57.7605 49.9661 59.1919 48.6037 60.1898 46.9389C61.1877 45.2741 61.7146 43.3695 61.7143 41.4286Z" fill="#48D1CC"/>
</svg>
